HIERARCHY
ROOT hip
{
  OFFSET 0.0 0.0 0.0
  CHANNELS 6 Xposition Yposition Zposition Zrotation Yrotation Xrotation
  JOINT torso
  {
    OFFSET 0.0 0.0 0.0
    CHANNELS 3 Zrotation Xrotation Yrotation
    JOINT neck
    {
      OFFSET -31.42098999999993 328.8025209999999 74.3554680000002
      CHANNELS 3 Zrotation Xrotation Yrotation
      JOINT head
      {
        OFFSET 3.3519900000001144 303.81732099999994 206.53942900000015
        CHANNELS 3 Zrotation Xrotation Yrotation
        End Site
        {
          OFFSET 0.0 0.0 0.0
        }
      }
    }
    JOINT left_collar
    {
      OFFSET -31.42098999999993 328.8025209999999 74.3554680000002
      CHANNELS 3 Zrotation Xrotation Yrotation
      JOINT left_upper_arm
      {
        OFFSET -124.490479 -8.162841999999841 8.226441000000023
        CHANNELS 3 Zrotation Xrotation Yrotation
        JOINT left_forearm
        {
          OFFSET -253.595764 -1.5758060000000569 105.0729980000001
          CHANNELS 3 Zrotation Xrotation Yrotation
          JOINT left_hand
          {
            OFFSET -269.48803699999996 0.1478270000000066 -55.346191999999974
            CHANNELS 3 Zrotation Xrotation Yrotation
            End Site
            {
              OFFSET 0.0 0.0 0.0
            }
          }
        }
      }
    }
    JOINT right_collar
    {
      OFFSET -31.42098999999993 328.8025209999999 74.3554680000002
      CHANNELS 3 Zrotation Xrotation Yrotation
      JOINT right_upper_arm
      {
        OFFSET 162.02484099999998 0.46441600000002836 2.2303470000001653
        CHANNELS 3 Zrotation Xrotation Yrotation
        JOINT right_forearm
        {
          OFFSET 240.01246700000004 -25.835875999999985 121.34179699999959
          CHANNELS 3 Zrotation Xrotation Yrotation
          JOINT right_hand
          {
            OFFSET 252.48539699999992 18.910399999999868 -67.53466800000001
            CHANNELS 3 Zrotation Xrotation Yrotation
            End Site
            {
              OFFSET 0.0 0.0 0.0
            }
          }
        }
      }
    }
  }
}
MOTION
Frames: 8
Frame Time: 0.01
-297.05555328765547 274.0074338714817 549.4853919187775 10.906396972841193 -0.20923018875086566 -50.54229745660196 -0.0158476901635558 3.554116481952948 0.3452559021654058 -12.063459614171801 -10.935069948643982 8.921947563147786 0.0 0.0 0.0 0.7448644364770954 0.2849782593027579 -3.2612036842359187 31.19877313230168 13.71713570092365 -1.5011746138386912 -16.836088125956437 1.6613536076665918 -11.977933191441819 0.0 0.0 0.0 -1.0076515678599818 0.041267990852049095 4.615945060584838 -47.999908480144185 8.232478438117653 -29.76112995428273 -47.25750229218475 -7.962996431284757 13.505042776992426 0.0 0.0 0.0
-297.05183356892763 273.9981631544502 549.5585041858292 10.920682656091454 -0.22055982613256073 -50.53927565693681 -0.01748909157206426 3.5628976815582507 0.34642851607451913 -12.060351255600608 -10.953139329180985 8.920751955897531 0.0 0.0 0.0 0.7462435797437972 0.28502223807654603 -3.260003935808754 31.194802550792605 13.709843595954336 -1.484732686267893 -16.85716909608426 1.6604217759434596 -11.998253205375658 0.0 0.0 0.0 -1.0060638571028515 0.041172057292935195 4.614252781089349 -47.9976443077404 8.237070645282042 -29.752115653489795 -47.26770541170369 -7.965377100419503 13.502980264689114 0.0 0.0 0.0
-297.0454935868685 273.9915231501006 549.6303293406861 10.936305667832762 -0.23364581335853796 -50.53972929298599 -0.020303037412777534 3.574665175287956 0.34812000298252205 -12.057751931372227 -10.972331915011166 8.919996486464745 0.0 0.0 0.0 0.7485753363960064 0.2849759187189805 -3.256311725613359 31.189559508992385 13.701784157184036 -1.4677295592847501 -16.877021506370685 1.6592572539055244 -12.01925303402517 0.0 0.0 0.0 -1.0042509735201985 0.04107564460562419 4.614529833832566 -47.99480019297361 8.242058426710434 -29.74214308567341 -47.27764175862922 -7.967561900959503 13.501342588588452 0.0 0.0 0.0
-297.03678058313227 273.9873566460538 549.700825119712 10.953113749567484 -0.24830744075510514 -50.54347539485501 -0.024197661068574537 3.5891430970753135 0.3502851347561487 -12.055609150968472 -10.992551816993611 8.919636939804384 0.0 0.0 0.0 0.7517909912435565 0.2848474895804165 -3.250333185307113 31.183111969182075 13.69296182805211 -1.4500823983658788 -16.895571860383637 1.6578795056954427 -12.0407566356131 0.0 0.0 0.0 -1.00226374077317 0.040980719439463714 4.616659575307339 -47.99141911401028 8.24739129378758 -29.731319487199414 -47.28725164989206 -7.969507124991891 13.500223728313324 0.0 0.0 0.0
-297.0259774891945 273.98547734631427 549.7699073411673 10.970932366481724 -0.2643286319308459 -50.55024614552344 -0.029058693659102013 3.6060074694103603 0.35286956672512454 -12.053861783290358 -11.013691528234974 8.919622066202798 0.0 0.0 0.0 0.7557937897070477 0.2846461641666146 -3.24232621928273 31.175560204703523 13.683393765678117 -1.4317020280093882 -16.912762963658313 1.6563010767797381 -12.06264609725088 0.0 0.0 0.0 -1.0001479997975355 0.040888708132609725 4.620480556779669 -47.987558130618964 8.253008235890768 -29.719776946138367 -47.29648306764377 -7.971174469493126 13.499706035132196 0.0 0.0 0.0
-297.01339975347105 273.9856765118214 549.8374409241934 10.989568491892715 -0.2814638610184832 -50.55969715548957 -0.03475185719406127 3.624896381678838 0.3558113599337555 -12.052443914730281 -11.035634921105443 8.919896585820995 0.0 0.0 0.0 0.7604628330160428 0.2843819777041531 -3.2325919222183566 31.167030402624835 13.673108364565548 -1.4124973702578778 -16.928549182838424 1.654526444164367 -12.084865641409516 0.0 0.0 0.0 -0.9979443309705512 0.04080053325256683 4.625793177320463 -47.983285817774416 8.258838529493215 -29.70766982832021 -47.30529301447937 -7.972532775154863 13.499856062010409 0.0 0.0 0.0
-296.999392050995 273.9877299620839 549.9032333959435 11.008814994788612 -0.29944474548282946 -50.571417457880834 -0.04112568620389438 3.6454208050904953 0.3590426484259104 -12.051288935273467 -11.058260173449135 8.92040435803545 0.0 0.0 0.0 0.7656579093608467 0.28406562989231593 -3.221465379162621 31.15766725953173 13.66214343376877 -1.3923802262162308 -16.942892107712 1.6525513215728915 -12.107422959027978 0.0 0.0 0.0 -0.9956884150528513 0.040716688082018254 4.632367346679211 -47.97867936164473 8.264802972362142 -29.695171306125562 -47.31364818270661 -7.973559498413658 13.500720830761502 0.0 0.0 0.0
-296.98432492379266 273.99140519596483 549.9670312072639 11.028455549587417 -0.31798719998001934 -50.58494097534214 -0.04801476216020605 3.6671757951396 0.36249141815158764 -12.050333652045268 -11.081442573191982 8.921091565932565 0.0 0.0 0.0 0.7712250211185941 0.2837083622645556 -3.209306093699957 31.147625911621603 13.650544137053311 -1.3712702581665521 -16.955756802826166 1.6503624644216104 -12.130387721476975 0.0 0.0 0.0 -0.9934119124934062 0.04063734080604933 4.63995089336505 -47.973821474916996 8.270815509996675 -29.682469117427722 -47.321524942136946 -7.974241873048801 13.502324655267111 0.0 0.0 0.0
